<?xml version="1.0" encoding="UTF-8"?>
<svg id="Layer_1" data-name="Layer 1" xmlns="http://www.w3.org/2000/svg" viewBox="0 0 446.21 445.21">
  <defs>
    <style>
      .cls-1 {
        fill: #fff;
        stroke: #fff;
        stroke-miterlimit: 10;
        stroke-width: 16px;
      }
    </style>
  </defs>
  <g id="LtYlOd.tif">
    <path class="cls-1" d="M205.64,10.04C368.29-.94,485.19,162.56,416.7,312.11c-72.5,158.32-296.27,166.2-380.66,13.94C-38.47,191.59,52.39,20.39,205.64,10.04ZM362.86,352.75c1.08.78,6.76-6.13,7.96-7.52,96.36-112.47,26.57-290.72-118.63-312.32C81.59,7.54-35.17,202.84,70.45,339.64c2.21,2.87,8.08,10.71,10.38,12.62.71.59,1.76,1.07,2.04-.06,15.31-41.75,50.32-76.26,92.98-89.47-17.86-13.7-31.93-31.35-36.53-53.95-16.41-80.47,77.83-136,139.55-82.55,43.18,37.4,37.12,104.54-9.01,136.5,42.59,13.02,78.24,48.15,93.01,90.01ZM215.64,127.04c-81.44,8.31-71.54,134.14,12.69,127.69,83.33-6.38,74.06-136.54-12.69-127.69ZM217.64,276.04c-54.49,2.39-103.8,40.29-117.84,93.21.15,1.58,4.47,4.59,6.13,5.91,64.78,51.57,162.78,52.35,229.23,3.4,1.65-1.21,9.68-6.99,10.21-7.82,1.37-2.18-2.01-10.23-3.04-12.98-18.84-50.24-71.07-84.08-124.69-81.72Z"/>
  </g>
</svg>