<?xml version="1.0" encoding="utf-8"?>
<!-- Generator: Adobe Illustrator 25.2.0, SVG Export Plug-In . SVG Version: 6.00 Build 0)  -->
<svg version="1.1" id="Layer_1" xmlns="http://www.w3.org/2000/svg" xmlns:xlink="http://www.w3.org/1999/xlink" x="0px" y="0px"
	 viewBox="0 0 924.1 465.5" style="enable-background:new 0 0 924.1 465.5;" xml:space="preserve">
<style type="text/css">
	.st0{fill:#FFFFFF;}
	.st1{fill:none;}
</style>
<g id="vLma8O.tif">
	<g>
		<path class="st0" d="M912.9,88.4c-13.8,6.9-27.5,14.1-41.5,20.5c-27.3,12.4-55.5,22.7-85.5,25.7c-11.3,1.1-22.9,0-34.3-0.1
			c-2.1,0-4.4-0.4-6.3,0.3c-29,10.3-59,14.9-89.5,15.7c-19.4,0.5-38.9-0.2-58.3-1.2c-34.8-1.7-67.3,6.4-98.3,21.5
			c-11.2,5.5-21.8,12.1-32.4,18.6c-2.8,1.7-4.5,1.4-7-0.3c-27.2-18.3-56.7-31.1-89-37.3c-19.5-3.7-39.1-2.4-58.7-1.4
			c-42.6,2.1-84.8-0.9-125.6-14.2c-5.7-1.9-10.9-1.6-16.6-1.1c-20.6,1.9-40.8-1.2-60.6-6.7c-33.2-9.1-64.3-23.2-95.5-40.6
			c9.2-2.3,17.2-4.4,25.3-6.2C121.7,63.4,204.2,45,286.8,26.9c14.4-3.2,29.1-5.4,43.7-7.6c11.5-1.7,18.5,3.9,22.3,15.1
			c3,9.1,6.7,18.1,11.4,26.4c4.9,8.5,12.8,13.8,23.7,14.6c-1.3-6.5-2.6-12.6-3.6-18.7c-1-6.2-1.5-12.5-2.5-18.8
			c-0.5-3.1,0.7-4.7,3.5-6.1c19.4-10.4,39.9-17.4,61.9-19.5c1.1-0.1,2.2-0.6,3.3-0.9c8.7,0,17.3,0,26,0c1.3,0.3,2.5,0.8,3.8,0.9
			c22,2.3,42.4,9.3,61.8,19.7c2.7,1.4,3.4,3.1,3,5.9c-0.9,6.4-1.5,12.9-2.6,19.3c-1,6-2.3,11.9-3.5,18.2
			c10.9-0.8,18.8-6.1,23.7-14.6c4.7-8.3,8.4-17.3,11.4-26.4c3.7-11.2,10.7-16.7,22.2-15.2c9,1.2,18.1,2.8,27.1,4.4
			C706.8,39.4,789.6,58.5,872.2,78c13.6,3.2,27.2,6.3,40.7,9.4C912.9,87.7,912.9,88.1,912.9,88.4z M463,174.2
			c0.9-0.3,1.2-0.4,1.5-0.6c40.4-34.1,63.6-77.4,70-129.9c0.4-3.2-0.8-4.8-3.5-6.1c-45-21.7-90-21.7-135,0.1c-2.8,1.4-4,3-3.4,6.2
			c1.8,9.1,2.8,18.5,5.1,27.5C408.2,112.6,430.2,146.7,463,174.2z M262.8,61c0-0.4,0-0.8,0-1.2c-2.4-0.5-4.7-1-7.1-1.4
			c-28.5-4.6-56.8-2.3-84.8,3.7C129.7,71,88.6,80.8,47.5,90.2c-1.3,0.3-2.5,0.8-3.8,1.1c0,0.5-0.1,0.9-0.1,1.4
			c13.6,5.7,27.1,11.6,40.9,17c2.5,1,5.9,1.1,8.5,0.3c42.5-12.1,84.9-24.4,127.4-36.7C234.5,69.2,248.7,65.1,262.8,61z M664.1,60.8
			c1.1,0.4,2.1,0.8,3.2,1.2c56,16.2,112,32.4,168.1,48.5c2,0.6,4.6,0.3,6.6-0.5c9.3-3.6,18.5-7.5,27.6-11.4c4.6-2,9.1-4.3,14.7-6.9
			c-2.1-0.7-3-1.1-4-1.3c-29-6.7-58-13.4-86.9-20.1c-28.5-6.6-57-13.4-86.5-14.1C692.5,55.8,678.2,56.3,664.1,60.8z M259.7,91.1
			c-10.7-10.2-31.3-14.8-46.3-10.5c-35.1,10.1-70.2,20.3-105.3,30.5c-3,0.9-6.1,1.8-10.5,3.1c2.2,0.8,2.9,1.2,3.7,1.4
			c14.6,3.2,29,7.5,43.8,9.3c10.7,1.3,22.6,1.8,32.5-1.6C205.2,113.8,232.1,102.1,259.7,91.1z M827.9,115.2c0-0.4,0-0.9-0.1-1.3
			c-1.2-0.4-2.3-0.9-3.5-1.3c-32.9-9.5-65.7-18.9-98.6-28.5c-10.2-2.9-20.2-6.6-31.2-4.9c-10,1.5-19.1,5-27.6,11.5
			c2.4,1.1,4.2,1.9,6,2.6c20.7,8.3,41.3,16.5,62,24.7c5.8,2.3,11.7,5.1,17.8,6.2c16.6,3.1,33.1,1.2,49.5-2.5
			C810.8,119.9,819.3,117.4,827.9,115.2z M348.7,55c-1.9-5.8-3.7-11-5.2-16.2c-2.6-9-5.5-10.9-15-9.2c-14.2,2.6-28.5,5-42.7,7.7
			c-15.3,2.9-30.5,6.1-45.7,9.1c1.1,0.8,2,1,3,0.9c24.1-1.8,47,1.5,67.7,15.4c3,2,8.2,2.8,11.8,1.8C331.5,62.1,340,58.3,348.7,55z
			 M686.7,47.3c0-0.3-0.1-0.6-0.1-1c-18.7-3.7-37.4-7.5-56.2-11c-10.8-2.1-21.6-3.9-32.4-5.8c-7.1-1.2-11.2-0.1-12.9,4.4
			c-2.5,6.8-4.5,13.8-6.7,20.8c6.3,2.6,12.4,4.8,18.2,7.5c8.6,4.1,16.4,3.4,24.4-2c12.4-8.5,26.5-12.2,41.4-12.9
			C670.4,47,678.5,47.3,686.7,47.3z M637.1,109.2c13.1,7.3,25.2,14.7,37.8,20.7c12.1,5.8,25.1,7.3,38.3,3.5
			c8.3-2.4,16.7-4.4,25.1-6.7c-18.6-8.7-36.8-16.7-55.5-23.4C667.5,97.8,652.5,100.8,637.1,109.2z M188.6,125.4c0,0.5,0,1,0,1.6
			c9.9,2.5,19.8,5.2,29.9,7.3c4.6,1,9.6,1.3,14.3,0.8c21.5-2.2,37.9-15.7,56.6-26c-15-8.2-30-11.2-45.4-5.7
			C225.3,110.1,207,118,188.6,125.4z M323.7,122.8c-13.2-4.6-26-5.9-39.2-2.5c-12.9,3.3-22.9,11.7-34,18.4
			c11.7,1.3,23.2,1.7,34.6,2.4C301.1,142.1,313.3,135.2,323.7,122.8z M603.3,123.1c10,11.8,21.8,18.9,37.4,18
			c11.8-0.6,23.7-1.1,36.8-1.7C654.3,122.5,631.4,111.6,603.3,123.1z M557.4,81.8c2.2,2,5.1,4.6,7.9,7.3c3.3,3.1,7.4,4.1,11,2
			c10-5.8,19.5-12.1,29.3-18.3c-0.2-0.5-0.4-1.1-0.6-1.6c-9.7-4-19.5-7.9-28.2-11.5C570.1,67.5,563.9,74.5,557.4,81.8z M350,59.8
			c-8.8,3.6-18.5,7.6-30,12.3c10.6,6.7,19.7,13,29.4,18.4c2.6,1.5,7.4,1.3,10.2-0.1c4.1-2.1,7.2-6,9.9-8.4
			C362.8,74.4,356.6,67.4,350,59.8z M629.2,75.2c19.7,10.9,37.8,9.1,47.2-4.5C660,62.2,643.9,60.7,629.2,75.2z M249.5,70.2
			c13.2,14.8,30.9,16.3,49,4.2c-5.5-2.9-10.5-5.7-15.7-8.2c-2.8-1.3-6.1-3.3-8.8-2.8C265.9,65.1,257.9,67.8,249.5,70.2z M650.4,89.8
			c-8.5-3.5-16.7-6.9-24.8-10.1c-1.1-0.4-2.8-0.6-3.7,0c-5,3.4-9.9,7.1-15,10.8C623.8,102.5,637.2,102.3,650.4,89.8z M320.1,90.5
			c-5.1-3.8-9.8-7.2-14.5-10.5c-0.9-0.6-2.6-0.9-3.6-0.5c-8.4,3.3-16.8,6.8-25.3,10.3C289.2,102.3,302.9,102.5,320.1,90.5z
			 M361,128.8c-20.1-4.8-39.6-0.1-46.2,10.6c10.6,0,21.7,0,32.8,0c0.7,0,1.3,0,2-0.1C356.4,138.4,358.9,136,361,128.8z M565.8,128.4
			c2.4,8.4,5.6,10.9,14,10.9c5.5,0,11-0.1,16.4,0.1c5.5,0.2,11,0.6,17.5,1C599.7,125.1,583,126,565.8,128.4z M583.7,105
			c8,11.5,25.5,9.5,37.7,0.6c-6.1-3.6-12-7.2-18.1-10.6c-0.8-0.4-2.3-0.3-3.1,0.2C594.7,98.3,589.2,101.7,583.7,105z M305.4,105.6
			c12,8.7,29.6,11.2,37.8-0.6c-5.4-3.2-10.7-6.5-16.1-9.6c-1-0.6-2.7-0.8-3.5-0.3C317.5,98.3,311.5,101.9,305.4,105.6z M362.6,95.2
			c0,0.6,0.1,1.1,0.1,1.7c7.1,0.9,14.3,2.2,21.5,2.7c10.5,0.7,11.9-1.6,7.8-11.3c-0.5-1.3-2.4-2.4-3.8-2.8
			c-3.4-0.8-6.8-1.2-10.2-1.5c-1.3-0.1-3,0.1-3.9,0.9C370.1,88.2,366.4,91.7,362.6,95.2z M564,97.2c0.1-0.7,0.2-1.3,0.3-2
			c-1.4-1.3-2.9-2.6-4.3-3.9c-4.9-5-9.3-8.7-17.8-6.5c-5.8,1.4-8,3.5-9.1,8.4c-1,4.3,0.3,6.6,4.9,6.3
			C546.7,99.1,555.3,98.1,564,97.2z M369.4,113.2c-6.3-1.8-12.3-3.5-18.4-5.1c-0.8-0.2-2.1-0.3-2.7,0.2c-3.8,3.3-7.5,6.7-11.5,10.3
			C349.3,123.9,366.1,122.1,369.4,113.2z M589.9,118.4c-3.9-3.6-7.7-7-11.5-10.3c-0.4-0.3-1.3-0.5-1.8-0.3
			c-6.4,1.8-12.8,3.7-19.2,5.5C561.1,122.3,578.5,123.9,589.9,118.4z M565.2,140.3c-4.9-8.7-18.3-12.6-26.8-8.2
			c1.9,10.8,3.3,11.9,14.1,10.3C556.7,141.7,560.8,141,565.2,140.3z M388.3,131.4c-11.8-2.9-22.8,0.8-26.4,8.9
			c4.5,0.7,8.9,1.5,13.3,2.1C385.4,143.9,387.2,142.4,388.3,131.4z M518.5,133.1c0,3.6-0.4,7.4,0.1,11.1c0.6,4.6,3.2,6.1,7.8,4.8
			c3.1-0.9,6.2-2,9.2-3C534.6,135.8,528.7,131.3,518.5,133.1z M391.2,147.2c5.2,0.4,11.1,2.8,14.7,0.8c4.8-2.6,2.5-9.2,2.3-14.3
			c0-0.3-0.3-0.6-0.5-0.8C398,131.4,392.2,135.9,391.2,147.2z M391.9,114.2c-15-1.9-19.6,0.5-21.2,10.9
			C382,126.6,389.8,122.7,391.9,114.2z M557.4,124.6c-2.6-3.9-4.3-9.2-7.6-10.6c-4.3-1.8-9.9-0.4-15.3-0.4
			C537.7,123.1,546.1,127,557.4,124.6z M508.9,140.3c-2.3,3-4.7,5.9-6.8,9c-1.7,2.5-6,4.8-3.2,8.1c0.9,1.1,5.6-0.5,8.3-1.5
			C514.4,153.1,515.3,145.7,508.9,140.3z M417.9,140.1c-6.4,6.4-5.3,13,2,16c1.4,0.6,2.7,1.4,4.1,1.6c1.5,0.2,3-0.2,4.5-0.3
			c-0.3-1.5-0.1-3.3-0.9-4.5C424.6,148.6,421.3,144.6,417.9,140.1z M394.9,127c3.5-0.5,6.1-0.5,8.3-1.4c1.4-0.6,3.5-3.3,3.1-3.9
			c-1.7-3.1-4.1-5.8-6.4-8.4c-0.1-0.1-2.2,0.9-2.4,1.7C396.6,118.6,395.9,122.3,394.9,127z M531.8,126.4c-0.8-4-1.3-7.8-2.6-11.2
			c-0.3-0.9-4.2-1.8-4.5-1.4c-1.8,2.9-3.1,6.1-4.6,9.2c2.7,1.3,5.3,2.6,8.1,3.7C529.1,126.9,530.2,126.5,531.8,126.4z"/>
		<path class="st0" d="M493.3,340.9c0,66.6-52.3,118.4-119.6,118.4c-67.9,0-118.8-50.7-118.7-118.2c0-66.4,52.5-117.8,120.2-117.8
			C442.6,223.4,493.3,273.9,493.3,340.9z M299.8,340.8c0.9,6.6,1.2,13.3,2.8,19.7c6.6,27.1,22.6,46.4,49.5,54.6
			c26.8,8.2,51.7,3.3,72.3-16.2c21.2-20.1,26.8-45.7,22-73.8c-7.6-45.4-53.4-72.5-96.8-57.7C319.8,277.7,300.5,306.3,299.8,340.8z"
			/>
		<path class="st0" d="M271.7,455.3c-14.8,0-28.8-0.1-42.8,0.1c-3.1,0-4-1.6-4.9-3.8c-6.3-15.2-12.9-30.3-19-45.6
			c-1.5-3.8-3.5-4.8-7.3-4.8c-30.8,0.2-61.6,0.2-92.4,0c-4,0-6.1,0.9-7.7,4.9c-6.1,15.1-12.7,30-18.9,45.1c-1.3,3-2.8,4.2-6.2,4.2
			c-13.1-0.2-26.3-0.1-40.2-0.1c0.7-1.9,1.3-3.3,1.9-4.7c32-73.5,64.1-147,96.1-220.5c1.6-3.6,3.4-4.9,7.3-4.7
			c7.3,0.4,14.6,0.3,22,0c8.4-0.3,13.6,3.4,17,11.1c17.6,40.8,35.4,81.4,53.2,122.2c13.4,30.6,26.7,61.3,40.1,91.9
			C270.3,451.9,270.8,453.3,271.7,455.3z M186.7,362.1c-11.8-27.3-23.4-54.2-35.5-82.2c-11.9,27.9-23.4,54.8-35.2,82.2
			C139.9,362.1,162.9,362.1,186.7,362.1z"/>
		<path class="st0" d="M655.1,455.3c33.6-77,66.9-153.3,100.3-229.8c10.3,0,20.5-0.2,30.6,0.1c6.5,0.2,10.5,4.1,13,10
			c21.9,50.3,43.9,100.6,65.8,150.9c9.2,21.2,18.5,42.4,27.8,63.6c0.7,1.5,1.2,3,2,5.2c-11.7,0-23,0-34.2,0
			c-11.7,0-11.7,0-16.2-10.7c-5.5-13.2-11.1-26.4-16.5-39.6c-1.1-2.7-2.4-3.8-5.5-3.7c-31.8,0.1-63.6,0.1-95.4,0
			c-3,0-4.4,0.9-5.6,3.6c-6.5,15.7-13.2,31.3-20,46.8c-0.7,1.5-2.8,3.4-4.3,3.5C683.4,455.4,669.7,455.3,655.1,455.3z M809.8,362.1
			c-11.8-27.4-23.4-54.3-35.5-82.2c-11.9,27.9-23.5,54.8-35.2,82.2C763,362.1,786,362.1,809.8,362.1z"/>
		<path class="st0" d="M557,381.7c0,19.6,0,38.2,0,56.8c0,11.5-5.1,16.8-16.7,16.8c-8.3,0-16.6,0-25,0c-0.3,0-0.7-0.1-1.4-0.3
			c0-76.2,0-152.6,0-229.2c1.7-0.1,3.4-0.2,5-0.2c29.3,0,58.6-0.1,87.9,0.1c14.4,0.1,28.5,2.7,41.7,8.8
			c24.1,11.1,38.3,29.8,41.7,56.2c3.3,25.8-2.2,49.1-21.6,67.6c-13.9,13.2-31,20.4-49.7,22c-18.2,1.6-36.5,1.1-54.8,1.6
			C562,381.8,559.8,381.7,557,381.7z M557.3,342.2c20.3-1.2,40.5,2.5,60.3-2.4c21.8-5.5,32.5-22.6,28.8-44.4
			c-2.7-15.8-15.2-27.5-33.7-28.9c-18-1.3-36.2-0.7-54.3-0.9c-0.3,0-0.5,0.3-1,0.6C557.3,291.2,557.3,316.3,557.3,342.2z"/>
		<path class="st0" d="M855.6,233.6c0,5.2,0,10.5,0,15.7c-0.6,0-1.2,0.1-1.8,0.1c-0.2-3.4-0.5-6.8-0.9-11.4c-2.1,2.9-3.7,5.1-5.7,8
			c-1.9-2.7-3.7-5.2-6-8.5c-0.2,4.6-0.4,8.2-0.5,11.8c-0.4,0-0.9-0.1-1.3-0.1c0-5.4,0-10.7,0-16.1c0.4-0.3,0.8-0.5,1.1-0.8
			c2.2,3,4.5,5.9,6.7,9c2.6-3.2,4.9-6.1,7.3-9.1C854.8,232.6,855.2,233.1,855.6,233.6z"/>
		<path class="st0" d="M827.2,249.2c0-4.5,0-9,0-13.4c-2.3-0.5-4-0.9-5.6-1.3c0-0.4,0-0.7,0.1-1.1c4.3,0,8.7,0,13,0
			c0.1,0.3,0.2,0.6,0.2,1c-1.7,0.4-3.4,0.9-5.8,1.5c0,4.4,0,8.9,0,13.4C828.5,249.2,827.9,249.2,827.2,249.2z"/>
		<path class="st0" d="M418,39.2c36.1-11.8,70-9.9,103.2,5.1c1.1,0.5,2.5,2.4,2.4,3.5c-1.8,15.2-5.6,30-11.6,44.6
			C480.9,74.8,450,57.3,418,39.2z"/>
		<path class="st0" d="M490.2,133.1c-9,9.9-17.5,19.2-26.2,28.7c-22.3-20-38.5-43.1-49.9-71.7C439.8,104.8,464.5,118.7,490.2,133.1z
			"/>
		<path class="st0" d="M462.2,89.2c5.1-1.1,5.6-4.1,2-9.1c-0.8,1.1-1.5,2-2.8,3.8c-1.4-1.8-3.3-3.2-3.7-5c-0.3-1.3,1-4.3,2-4.4
			c2-0.3,4.6,0.2,6.3,1.3c5.3,3.6,6.1,9.1,5.5,15.1c-0.3,2.5-0.1,5,0,7.5c0.1,1.8,0.8,3.7,0.5,5.4c-0.4,2.3-1.3,6.2-2.3,6.3
			c-2.4,0.3-5.5-0.7-7.5-2.2c-3.7-2.7-5.2-6.7-4.7-11.4c6.4-1,3.6,6.8,8,8C469.7,98.6,463.6,94.5,462.2,89.2z"/>
		<path class="st0" d="M439.4,94.6c1.4-3.1,2.8-6.2,4.4-9.7c-7.4-4-7.5-10.9-7-17.8c0.4-4.7,2.9-6,7.2-3.8c6.5,3.3,9.4,12.3,6.5,21
			c-1,3.1-2.5,6.1-3.9,9.1C444.4,98.2,443.9,98.3,439.4,94.6z M444.9,80.2c2.4-5.6,1.7-9.2-2.6-12C442.8,72.6,440.4,76.9,444.9,80.2
			z"/>
		<path class="st0" d="M485.5,108.5c-7.9-4.5-7.5-11.8-6.8-19c0.4-3.6,2.8-4.5,6.2-3.1c7.2,3,10.5,13.3,7,22.5
			c-1.1,2.8-2.4,5.5-3.6,8.2c-2,4.4-2.5,4.5-7.2,1.2C482.5,115.2,483.9,112.1,485.5,108.5z M486.4,91.8c-0.6,0.2-1.3,0.3-1.9,0.5
			c-2,6.2-1.2,9.3,3.6,11.2C487.5,99.2,487,95.6,486.4,91.8z"/>
		<path class="st0" d="M429.5,88.8c-4.1-0.4-5.3-2.5-5.1-6.1c0.2-6,0.1-12,0.1-17.9c0-2.7,0.7-5.7-3-7.1c-0.5-0.2-0.9-2.6-0.5-2.9
			c1.3-0.9,3.4-2.1,4.3-1.6c1.8,1,4.1,3,4.1,4.7C429.7,68.2,429.5,78.4,429.5,88.8z"/>
	</g>
</g>
<polyline class="st1" points="-13.8,484.5 -13.8,-13.8 924.1,-13.8 924.1,484.5 "/>
</svg>
