<?xml version="1.0" encoding="utf-8"?>
<!-- Generator: Adobe Illustrator 25.2.0, SVG Export Plug-In . SVG Version: 6.00 Build 0)  -->
<svg version="1.1" id="Layer_1" xmlns="http://www.w3.org/2000/svg" xmlns:xlink="http://www.w3.org/1999/xlink" x="0px" y="0px"
	 viewBox="0 0 924.14 465.52" style="enable-background:new 0 0 924.14 465.52;" xml:space="preserve">
<style type="text/css">
	.st0{fill:none;}
</style>
<g id="vLma8O.tif">
	<g>
		<path d="M912.94,88.39c-13.82,6.86-27.45,14.13-41.49,20.48c-27.35,12.36-55.46,22.68-85.54,25.74c-11.31,1.15-22.86,0-34.3-0.07
			c-2.12-0.01-4.43-0.39-6.34,0.28c-28.97,10.28-58.99,14.89-89.53,15.7c-19.41,0.51-38.89-0.23-58.3-1.17
			c-34.77-1.69-67.33,6.4-98.27,21.54c-11.17,5.46-21.75,12.15-32.39,18.63c-2.8,1.71-4.46,1.42-6.96-0.27
			c-27.19-18.34-56.68-31.14-89.01-37.33c-19.53-3.74-39.06-2.38-58.66-1.39c-42.64,2.15-84.77-0.85-125.63-14.25
			c-5.68-1.86-10.91-1.58-16.55-1.06c-20.64,1.89-40.77-1.23-60.64-6.69c-33.21-9.13-64.29-23.22-95.48-40.62
			c9.19-2.27,17.2-4.42,25.28-6.22C121.67,63.37,204.23,45,286.84,26.91c14.44-3.16,29.1-5.38,43.72-7.6
			c11.52-1.74,18.55,3.89,22.26,15.12c3,9.08,6.69,18.1,11.41,26.39c4.86,8.53,12.75,13.8,23.67,14.64
			c-1.26-6.49-2.61-12.58-3.6-18.73c-1-6.24-1.55-12.55-2.5-18.8c-0.47-3.12,0.73-4.69,3.47-6.15
			c19.43-10.35,39.88-17.35,61.88-19.5c1.12-0.11,2.2-0.59,3.3-0.89c8.66,0,17.31,0,25.97,0c1.27,0.32,2.51,0.8,3.8,0.93
			c21.98,2.27,42.43,9.26,61.81,19.72c2.67,1.44,3.42,3.12,3.02,5.89c-0.91,6.42-1.55,12.89-2.57,19.29
			c-0.96,5.99-2.27,11.91-3.5,18.24c10.91-0.84,18.81-6.1,23.66-14.63c4.72-8.29,8.41-17.31,11.41-26.39
			c3.72-11.24,10.71-16.73,22.25-15.16c9.05,1.23,18.08,2.75,27.06,4.43C706.84,39.4,789.56,58.53,872.2,78.01
			c13.56,3.2,27.16,6.26,40.74,9.38C912.94,87.72,912.94,88.06,912.94,88.39z M462.96,174.2c0.85-0.32,1.21-0.36,1.45-0.55
			c40.4-34.07,63.57-77.44,70-129.88c0.4-3.23-0.76-4.81-3.5-6.13c-45.03-21.71-90.02-21.71-135.04,0.06
			c-2.82,1.36-3.96,3.05-3.35,6.19c1.76,9.14,2.81,18.46,5.12,27.46C408.24,112.62,430.25,146.74,462.96,174.2z M262.83,60.98
			c0-0.41,0-0.83,0-1.24c-2.38-0.47-4.74-1.01-7.13-1.39c-28.5-4.6-56.81-2.3-84.75,3.73C129.7,70.96,88.64,80.76,47.5,90.19
			c-1.29,0.3-2.54,0.75-3.81,1.13c-0.04,0.47-0.08,0.94-0.11,1.41c13.61,5.71,27.15,11.56,40.87,17.01c2.51,1,5.89,1.07,8.52,0.32
			c42.49-12.12,84.93-24.44,127.37-36.72C234.51,69.23,248.67,65.1,262.83,60.98z M664.09,60.81c1.07,0.39,2.12,0.84,3.2,1.16
			c56.01,16.2,112.03,32.41,168.08,48.47c2.02,0.58,4.64,0.3,6.63-0.47c9.28-3.63,18.47-7.51,27.63-11.43
			c4.62-1.98,9.11-4.26,14.69-6.88c-2.14-0.71-3.03-1.09-3.96-1.3c-28.98-6.71-57.96-13.36-86.93-20.1
			c-28.51-6.64-56.98-13.44-86.46-14.08C692.54,55.85,678.19,56.34,664.09,60.81z M259.68,91.06
			c-10.66-10.22-31.26-14.82-46.28-10.49c-35.1,10.12-70.18,20.33-105.26,30.51c-3.04,0.88-6.08,1.8-10.48,3.11
			c2.21,0.85,2.9,1.22,3.65,1.38c14.57,3.23,29.02,7.49,43.77,9.29c10.69,1.3,22.62,1.78,32.54-1.63
			C205.23,113.75,232.08,102.06,259.68,91.06z M827.89,115.19c-0.03-0.43-0.05-0.86-0.08-1.29c-1.17-0.43-2.31-0.93-3.5-1.28
			c-32.86-9.49-65.74-18.93-98.6-28.45c-10.2-2.95-20.22-6.58-31.19-4.91c-10.01,1.52-19.1,4.96-27.64,11.49
			c2.42,1.06,4.19,1.88,6,2.61c20.67,8.26,41.33,16.55,62.04,24.72c5.85,2.31,11.69,5.12,17.8,6.25c16.6,3.09,33.14,1.17,49.46-2.51
			C810.81,119.87,819.32,117.41,827.89,115.19z M348.66,55.02c-1.89-5.84-3.69-10.99-5.21-16.22c-2.62-8.98-5.55-10.85-14.96-9.16
			c-14.23,2.56-28.48,5.02-42.67,7.73c-15.27,2.92-30.49,6.08-45.74,9.14c1.05,0.81,2.01,0.96,2.96,0.89
			c24.14-1.78,47.03,1.49,67.74,15.36c3.05,2.04,8.25,2.78,11.81,1.79C331.45,62.11,339.95,58.31,348.66,55.02z M686.67,47.35
			c-0.03-0.32-0.06-0.63-0.09-0.95c-18.72-3.69-37.44-7.45-56.18-11.05c-10.77-2.07-21.59-3.88-32.39-5.77
			c-7.14-1.25-11.22-0.13-12.93,4.41c-2.55,6.76-4.48,13.76-6.74,20.83c6.26,2.57,12.36,4.76,18.18,7.54
			c8.64,4.13,16.44,3.36,24.39-2.04c12.41-8.45,26.52-12.19,41.38-12.9C670.4,47.03,678.54,47.35,686.67,47.35z M637.13,109.25
			c13.14,7.26,25.15,14.66,37.8,20.67c12.1,5.75,25.08,7.3,38.35,3.49c8.32-2.39,16.74-4.44,25.12-6.65
			c-18.56-8.73-36.82-16.66-55.51-23.39C667.51,97.82,652.52,100.82,637.13,109.25z M188.59,125.44c0.01,0.52,0.02,1.03,0.02,1.55
			c9.94,2.46,19.83,5.19,29.85,7.27c4.64,0.96,9.61,1.31,14.32,0.83c21.54-2.21,37.9-15.7,56.61-26.02
			c-15.02-8.24-30.01-11.25-45.39-5.71C225.3,110.09,207.04,118.02,188.59,125.44z M323.71,122.81
			c-13.17-4.58-26.01-5.91-39.17-2.51c-12.85,3.32-22.89,11.69-33.99,18.43c11.72,1.3,23.17,1.67,34.6,2.38
			C301.14,142.1,313.3,135.19,323.71,122.81z M603.34,123.06c10.02,11.75,21.75,18.89,37.39,18.03c11.82-0.65,23.65-1.09,36.8-1.68
			C654.34,122.52,631.41,111.59,603.34,123.06z M557.42,81.84c2.15,1.98,5.08,4.62,7.94,7.33c3.27,3.12,7.42,4.06,11.03,1.96
			c9.95-5.76,19.55-12.14,29.29-18.27c-0.2-0.52-0.39-1.05-0.59-1.57c-9.74-3.97-19.49-7.93-28.18-11.47
			C570.13,67.5,563.92,74.51,557.42,81.84z M349.98,59.8c-8.82,3.6-18.55,7.58-29.97,12.25c10.58,6.74,19.7,13.04,29.35,18.41
			c2.65,1.48,7.43,1.3,10.2-0.13c4.07-2.09,7.21-5.99,9.93-8.4C362.83,74.38,356.64,67.36,349.98,59.8z M629.24,75.17
			c19.66,10.92,37.81,9.09,47.25-4.49C659.96,62.23,643.87,60.71,629.24,75.17z M249.51,70.16c13.24,14.77,30.87,16.31,49.02,4.21
			c-5.47-2.87-10.48-5.69-15.67-8.15c-2.8-1.32-6.15-3.29-8.81-2.76C265.86,65.1,257.88,67.8,249.51,70.16z M650.36,89.75
			c-8.55-3.5-16.67-6.88-24.85-10.1c-1.1-0.43-2.85-0.56-3.72,0.03c-5.03,3.44-9.89,7.14-14.95,10.85
			C623.76,102.53,637.25,102.32,650.36,89.75z M320.08,90.53c-5.13-3.75-9.75-7.25-14.52-10.53c-0.93-0.64-2.63-0.92-3.65-0.53
			c-8.42,3.28-16.76,6.76-25.33,10.27C289.25,102.26,302.92,102.51,320.08,90.53z M360.95,128.75
			c-20.07-4.82-39.59-0.06-46.17,10.59c10.61,0,21.69,0,32.78-0.01c0.66,0,1.33-0.04,1.99-0.13
			C356.39,138.37,358.92,136.03,360.95,128.75z M565.81,128.41c2.43,8.41,5.64,10.85,14.04,10.92c5.48,0.04,10.96-0.08,16.43,0.09
			c5.5,0.18,10.99,0.63,17.5,1.02C599.68,125.13,583.01,126.03,565.81,128.41z M583.73,104.99c7.97,11.54,25.47,9.52,37.69,0.55
			c-6.11-3.62-12.05-7.21-18.09-10.62c-0.79-0.44-2.3-0.33-3.12,0.15C594.66,98.28,589.21,101.66,583.73,104.99z M305.4,105.58
			c12.04,8.69,29.64,11.18,37.76-0.63c-5.36-3.23-10.69-6.52-16.13-9.63c-0.96-0.55-2.66-0.83-3.52-0.35
			C317.45,98.35,311.52,101.95,305.4,105.58z M362.63,95.19c0.04,0.56,0.08,1.12,0.12,1.68c7.15,0.93,14.28,2.23,21.46,2.7
			c10.46,0.69,11.94-1.6,7.75-11.26c-0.55-1.27-2.37-2.43-3.81-2.78c-3.35-0.81-6.81-1.23-10.25-1.53c-1.3-0.12-3.02,0.09-3.94,0.87
			C370.06,88.17,366.38,91.73,362.63,95.19z M564.01,97.24c0.12-0.65,0.24-1.31,0.35-1.96c-1.43-1.31-2.92-2.56-4.27-3.95
			c-4.9-5.02-9.33-8.66-17.84-6.54c-5.79,1.44-7.98,3.48-9.14,8.45c-1,4.31,0.35,6.57,4.86,6.32
			C546.67,99.09,555.34,98.05,564.01,97.24z M369.44,113.17c-6.32-1.77-12.34-3.5-18.38-5.12c-0.84-0.23-2.13-0.32-2.68,0.15
			c-3.83,3.27-7.51,6.71-11.49,10.32C349.28,123.92,366.12,122.08,369.44,113.17z M589.86,118.41c-3.93-3.57-7.66-6.99-11.45-10.33
			c-0.4-0.35-1.26-0.48-1.8-0.33c-6.42,1.79-12.82,3.66-19.25,5.51C561.08,122.28,578.48,123.88,589.86,118.41z M565.19,140.27
			c-4.87-8.7-18.32-12.57-26.76-8.17c1.87,10.84,3.34,11.92,14.12,10.26C556.66,141.72,560.75,141,565.19,140.27z M388.32,131.44
			c-11.8-2.92-22.79,0.77-26.4,8.86c4.46,0.73,8.86,1.51,13.28,2.14C385.35,143.91,387.23,142.36,388.32,131.44z M518.49,133.1
			c0,3.63-0.36,7.43,0.09,11.12c0.57,4.62,3.25,6.08,7.78,4.76c3.12-0.91,6.19-2,9.18-2.97
			C534.61,135.84,528.67,131.29,518.49,133.1z M391.23,147.19c5.2,0.45,11.09,2.77,14.7,0.84c4.82-2.58,2.45-9.24,2.32-14.26
			c-0.01-0.28-0.31-0.56-0.48-0.83C398.03,131.41,392.2,135.93,391.23,147.19z M391.86,114.15c-15-1.86-19.57,0.54-21.2,10.89
			C381.96,126.62,389.84,122.68,391.86,114.15z M557.43,124.6c-2.6-3.89-4.26-9.24-7.58-10.63c-4.29-1.8-9.91-0.44-15.3-0.44
			C537.66,123.08,546.06,127.04,557.43,124.6z M508.88,140.26c-2.28,2.99-4.7,5.88-6.77,8.99c-1.69,2.54-5.96,4.78-3.2,8.15
			c0.89,1.08,5.62-0.47,8.33-1.51C514.44,153.13,515.3,145.67,508.88,140.26z M417.85,140.11c-6.37,6.43-5.33,12.97,2.01,16.02
			c1.37,0.57,2.69,1.42,4.11,1.63c1.45,0.22,2.99-0.19,4.49-0.33c-0.27-1.51-0.09-3.34-0.89-4.48
			C424.58,148.64,421.26,144.56,417.85,140.11z M394.94,127.02c3.53-0.52,6.11-0.46,8.26-1.38c1.43-0.62,3.48-3.34,3.15-3.93
			c-1.73-3.06-4.11-5.75-6.4-8.45c-0.07-0.09-2.18,0.93-2.39,1.69C396.59,118.55,395.94,122.26,394.94,127.02z M531.8,126.37
			c-0.84-4-1.31-7.75-2.57-11.22c-0.34-0.95-4.22-1.81-4.45-1.44c-1.8,2.88-3.1,6.07-4.56,9.16c2.68,1.26,5.33,2.61,8.07,3.71
			C529.09,126.91,530.18,126.5,531.8,126.37z"/>
		<path d="M493.32,340.89c0,66.65-52.33,118.43-119.65,118.41c-67.86-0.02-118.76-50.69-118.71-118.17
			c0.04-66.4,52.54-117.83,120.23-117.79C442.6,223.38,493.32,273.85,493.32,340.89z M299.83,340.8c0.9,6.58,1.25,13.3,2.81,19.72
			c6.57,27.11,22.57,46.38,49.47,54.63c26.77,8.21,51.73,3.31,72.31-16.21c21.2-20.1,26.77-45.68,22.05-73.8
			c-7.63-45.36-53.4-72.52-96.78-57.67C319.75,277.73,300.51,306.29,299.83,340.8z"/>
		<path d="M271.67,455.3c-14.79,0-28.77-0.11-42.75,0.09c-3.08,0.04-3.97-1.57-4.91-3.82c-6.34-15.2-12.88-30.32-18.96-45.61
			c-1.52-3.82-3.48-4.77-7.34-4.75c-30.8,0.16-61.6,0.16-92.4,0c-4-0.02-6.12,0.94-7.73,4.94c-6.08,15.12-12.71,30.02-18.95,45.08
			c-1.26,3.04-2.77,4.22-6.21,4.16c-13.14-0.24-26.29-0.1-40.25-0.1c0.74-1.87,1.26-3.32,1.87-4.73
			c32.05-73.49,64.13-146.97,96.08-220.5c1.56-3.59,3.4-4.89,7.33-4.69c7.31,0.37,14.65,0.34,21.97,0.04
			c8.44-0.34,13.65,3.39,16.97,11.08c17.62,40.77,35.44,81.45,53.19,122.16c13.36,30.65,26.73,61.29,40.09,91.94
			C270.27,451.94,270.83,453.3,271.67,455.3z M186.71,362.06c-11.8-27.34-23.4-54.25-35.47-82.22
			c-11.94,27.88-23.45,54.78-35.2,82.22C139.86,362.06,162.86,362.06,186.71,362.06z"/>
		<path d="M655.12,455.3c33.59-76.97,66.9-153.3,100.28-229.81c10.29,0,20.45-0.22,30.58,0.08c6.48,0.19,10.47,4.1,13.04,9.99
			c21.89,50.34,43.88,100.63,65.84,150.94c9.25,21.19,18.51,42.37,27.75,63.56c0.65,1.5,1.19,3.04,2.04,5.24
			c-11.73,0-22.96,0-34.19,0c-11.71,0-11.72,0-16.22-10.72c-5.53-13.19-11.12-26.36-16.52-39.61c-1.1-2.7-2.44-3.75-5.47-3.74
			c-31.8,0.12-63.59,0.11-95.39,0.01c-2.95-0.01-4.42,0.89-5.56,3.63c-6.52,15.66-13.15,31.28-19.97,46.81
			c-0.68,1.54-2.81,3.43-4.3,3.46C683.39,455.41,669.74,455.3,655.12,455.3z M809.85,362.06c-11.83-27.41-23.42-54.29-35.48-82.22
			c-11.94,27.91-23.46,54.83-35.18,82.22C763.05,362.06,786.04,362.06,809.85,362.06z"/>
		<path d="M557.05,381.71c0,19.57-0.02,38.21,0.01,56.84c0.02,11.54-5.12,16.75-16.68,16.75c-8.32,0-16.64-0.03-24.96-0.05
			c-0.32,0-0.65-0.13-1.36-0.29c0-76.25,0-152.59,0-229.25c1.74-0.08,3.36-0.22,4.98-0.22c29.29-0.01,58.57-0.14,87.86,0.05
			c14.42,0.09,28.45,2.67,41.65,8.79c24.06,11.15,38.3,29.8,41.71,56.2c3.34,25.81-2.16,49.09-21.61,67.61
			c-13.89,13.22-30.97,20.36-49.73,21.98c-18.18,1.57-36.53,1.15-54.81,1.6C561.97,381.75,559.85,381.71,557.05,381.71z
			 M557.31,342.22c20.28-1.22,40.52,2.52,60.29-2.42c21.81-5.45,32.5-22.62,28.79-44.38c-2.7-15.81-15.24-27.54-33.7-28.88
			c-18.04-1.32-36.22-0.7-54.34-0.91c-0.27,0-0.55,0.33-1.04,0.65C557.31,291.23,557.31,316.32,557.31,342.22z"/>
		<path d="M855.57,233.59c0,5.23,0,10.46,0,15.69c-0.6,0.03-1.2,0.06-1.79,0.09c-0.25-3.39-0.51-6.78-0.86-11.44
			c-2.12,2.95-3.68,5.12-5.72,7.96c-1.94-2.74-3.66-5.16-6.01-8.47c-0.21,4.65-0.38,8.24-0.54,11.83c-0.44-0.03-0.89-0.05-1.33-0.08
			c0-5.36,0-10.73,0-16.09c0.38-0.27,0.75-0.54,1.13-0.82c2.23,2.98,4.46,5.95,6.71,8.97c2.56-3.19,4.93-6.15,7.31-9.11
			C854.83,232.62,855.2,233.1,855.57,233.59z"/>
		<path d="M827.25,249.22c0-4.49,0-8.99,0-13.45c-2.28-0.52-3.95-0.9-5.61-1.28c0.02-0.37,0.05-0.74,0.07-1.1c4.33,0,8.66,0,13,0
			c0.08,0.32,0.15,0.64,0.23,0.96c-1.7,0.44-3.4,0.87-5.83,1.49c0,4.38,0,8.89,0,13.4C828.49,249.24,827.87,249.23,827.25,249.22z"
			/>
		<path d="M417.99,39.16c36.06-11.76,70.01-9.87,103.24,5.1c1.13,0.51,2.5,2.41,2.37,3.5c-1.83,15.24-5.64,29.99-11.63,44.61
			C480.88,74.76,450.03,57.3,417.99,39.16z"/>
		<path d="M490.16,133.13c-9.03,9.89-17.51,19.19-26.23,28.74c-22.3-20-38.55-43.12-49.93-71.65
			C439.84,104.79,464.46,118.66,490.16,133.13z"/>
		<path d="M462.25,89.21c5.08-1.05,5.63-4.08,2.02-9.08c-0.78,1.05-1.47,1.99-2.84,3.84c-1.39-1.75-3.26-3.18-3.69-4.96
			c-0.32-1.33,1.03-4.3,1.97-4.45c2.02-0.31,4.62,0.16,6.33,1.3c5.34,3.57,6.12,9.08,5.5,15.05c-0.26,2.46-0.09,4.98,0.02,7.46
			c0.08,1.82,0.78,3.69,0.49,5.42c-0.39,2.29-1.26,6.2-2.3,6.33c-2.43,0.3-5.49-0.69-7.55-2.18c-3.68-2.67-5.25-6.71-4.67-11.4
			c6.42-0.99,3.58,6.85,8,7.99C469.68,98.58,463.64,94.48,462.25,89.21z"/>
		<path d="M439.42,94.56c1.41-3.1,2.84-6.24,4.41-9.68c-7.38-4-7.48-10.86-6.98-17.82c0.35-4.73,2.9-5.97,7.18-3.82
			c6.52,3.27,9.38,12.33,6.45,21.04c-1.05,3.13-2.53,6.12-3.91,9.13C444.35,98.23,443.93,98.29,439.42,94.56z M444.87,80.22
			c2.36-5.64,1.73-9.17-2.62-12.01C442.79,72.58,440.42,76.9,444.87,80.22z"/>
		<path d="M485.49,108.46c-7.91-4.48-7.51-11.77-6.78-18.96c0.36-3.6,2.78-4.54,6.17-3.11c7.21,3.04,10.47,13.3,6.98,22.46
			c-1.06,2.78-2.36,5.47-3.6,8.18c-2.03,4.42-2.52,4.51-7.16,1.23C482.46,115.21,483.86,112.08,485.49,108.46z M486.41,91.85
			c-0.63,0.16-1.26,0.31-1.88,0.47c-1.98,6.17-1.22,9.3,3.62,11.17C487.51,99.25,486.96,95.55,486.41,91.85z"/>
		<path d="M429.51,88.8c-4.14-0.45-5.28-2.52-5.14-6.11c0.23-5.98,0.08-11.97,0.06-17.95c-0.01-2.74,0.68-5.74-2.99-7.08
			c-0.5-0.18-0.88-2.64-0.53-2.87c1.28-0.86,3.38-2.09,4.27-1.59c1.76,1.01,4.08,3.03,4.14,4.71
			C429.7,68.15,429.51,78.42,429.51,88.8z"/>
	</g>
</g>
<polyline class="st0" points="-13.79,484.48 -13.79,-13.79 924.14,-13.79 924.14,484.48 "/>
<g>
</g>
<g>
</g>
<g>
</g>
<g>
</g>
<g>
</g>
<g>
</g>
<g>
</g>
<g>
</g>
<g>
</g>
<g>
</g>
<g>
</g>
<g>
</g>
<g>
</g>
<g>
</g>
<g>
</g>
</svg>
