<?xml version="1.0" encoding="utf-8"?>
<!-- Generator: Adobe Illustrator 25.2.0, SVG Export Plug-In . SVG Version: 6.00 Build 0)  -->
<svg version="1.1" id="Layer_1" xmlns="http://www.w3.org/2000/svg" xmlns:xlink="http://www.w3.org/1999/xlink" x="0px" y="0px"
	 viewBox="0 0 133.2 66.3" style="enable-background:new 0 0 133.2 66.3;" xml:space="preserve">
<style type="text/css">
	.st0{fill:#FFFFFF;}
</style>
<g>
	<g>
		<path class="st0" d="M61.6,11.6V6.7c0-0.1-0.1-0.2-0.2-0.3l-0.6-0.3l-0.6,0.3v0.4l0.6,0.3v4.1L61.6,11.6z"/>
		<path class="st0" d="M63.5,12.7c0.2,0.1,0.4,0,0.4-0.1l0.7-1.6c0.1-0.3,0.2-0.7,0.2-1.1c0-0.6-0.1-0.9-0.2-1.3
			c-0.2-0.4-0.5-0.7-0.8-0.9s-0.7-0.2-0.9-0.1c-0.2,0.2-0.2,0.4-0.2,1.1c0,0.7,0.1,1,0.2,1.4c0.2,0.3,0.4,0.5,0.6,0.7
			c0.1,0,0.1,0.1,0.2,0.1L63,12.4L63.5,12.7z M63.5,9.9c-0.1-0.2-0.1-0.4-0.1-0.8c0-0.3,0-0.6,0.1-0.7c0,0,0,0,0.1,0
			c0,0,0.1,0,0.1,0c0.1,0.1,0.2,0.1,0.2,0.2C64,8.9,64,9.1,64,9.5c0,0.3,0,0.6-0.1,0.7c0,0-0.1,0-0.2,0C63.7,10.1,63.6,10,63.5,9.9z
			"/>
		<path class="st0" d="M65.7,12.4v0.4c0,0.4,0.1,0.7,0.3,1c0.2,0.3,0.5,0.6,0.8,0.7c0.2,0.1,0.4,0.2,0.6,0.2c0.1,0,0.2,0,0.2,0
			c0.3-0.1,0.3-0.4,0.3-1c0-0.4,0-0.7-0.1-1c0-0.1-0.1-0.2-0.2-0.4c0.1,0,0.2-0.1,0.2-0.2c0.1-0.2,0.1-0.4,0.1-0.7
			c0-0.5-0.1-0.9-0.3-1.2c-0.2-0.3-0.4-0.5-0.7-0.7c-0.3-0.2-0.6-0.2-0.7-0.1c-0.2,0.1-0.3,0.3-0.3,0.7v0.3l0.8,0.4v-0.4
			c0-0.1,0-0.2,0.1-0.2c0,0,0.1,0,0.1,0c0.1,0.1,0.2,0.1,0.2,0.2c0.1,0.1,0.1,0.3,0.1,0.6c0,0.3,0,0.5-0.1,0.5c0,0-0.1,0-0.2,0
			l-0.3-0.2v0.7l0.3,0.1c0.1,0.1,0.2,0.2,0.2,0.3c0.1,0.1,0.1,0.3,0.1,0.8c0,0.4,0,0.5-0.1,0.6c0,0-0.1,0-0.2,0
			c-0.2-0.1-0.3-0.3-0.3-0.6v-0.4L65.7,12.4z"/>
		<path class="st0" d="M69.9,11.2c-0.4-0.2-0.7-0.2-0.9-0.1c-0.2,0.2-0.2,0.4-0.2,1.1c0,0.7,0.1,1,0.2,1.4c0.2,0.3,0.4,0.5,0.6,0.7
			c0.1,0,0.1,0.1,0.2,0.1l-0.7,1.5l0,0l0.5,0.3c0.2,0.1,0.4,0,0.4-0.1l0.7-1.6c0.1-0.3,0.2-0.7,0.2-1.1c0-0.6-0.1-0.9-0.2-1.3
			C70.6,11.7,70.3,11.4,69.9,11.2z M70.1,13.7c0,0-0.1,0-0.2,0c-0.1-0.1-0.2-0.1-0.2-0.3c-0.1-0.2-0.1-0.4-0.1-0.8
			c0-0.3,0-0.6,0.1-0.7c0,0,0,0,0.1,0c0,0,0.1,0,0.1,0c0.1,0.1,0.2,0.1,0.2,0.2c0.1,0.2,0.1,0.4,0.1,0.8
			C70.2,13.3,70.2,13.6,70.1,13.7z"/>
		<path class="st0" d="M66.6,3c-2.3,0-4.5,0.4-6.7,1.1L73.8,12c0.9-2.2,1.5-4.5,1.8-6.9C72.7,3.7,69.7,3,66.6,3z"/>
		<path class="st0" d="M66.6,22.2c1.4-1.3,2.7-2.7,3.8-4.2l-11.2-6.3C60.8,15.7,63.3,19.3,66.6,22.2z"/>
		<path class="st0" d="M86.2,1.1c-0.1,0-0.3,0-0.4,0c-1.3,0-2.4,0.9-2.7,2.1c-0.6,2.5-2.1,6.2-5.3,6.3c0.5-2,0.9-4,1-6.2
			C75,1.2,70.9,0,66.6,0s-8.4,1.2-12.1,3.3c0.1,2.1,0.5,4.2,1,6.2c-3.2-0.1-4.7-3.7-5.3-6.3c-0.3-1.3-1.4-2.1-2.7-2.1
			c-0.1,0-0.3,0-0.4,0C32.5,3.4,0,11.3,0,11.3s11.9,7.1,21.4,7.1c1.1,0,2.1-0.1,3.2-0.3c0,0,5.9,2.6,16.4,2.6c1.7,0,3.6-0.1,5.6-0.2
			c0.6-0.1,1.2-0.1,1.8-0.1c10,0,18.2,6.3,18.2,6.3s8.3-6.3,18.2-6.3c0.6,0,1.2,0,1.8,0.1c2,0.2,3.8,0.2,5.6,0.2
			c10.6,0,16.4-2.6,16.4-2.6c1,0.2,2.1,0.3,3.2,0.3c9.4,0,21.4-7.1,21.4-7.1S100.7,3.4,86.2,1.1z M84.5,3.6c0.1-0.6,0.7-1,1.3-1
			c0.1,0,0.1,0,0.2,0c4.2,0.7,10,1.8,16.1,3.1C99,5.1,93.8,4.7,90,7.2h0c-0.9,0.6-1.7,1.1-3.3,0.5l-3.1-1.3
			C83.9,5.6,84.3,4.6,84.5,3.6z M79.6,19.4c-1.1,0.2-1.6-0.1-1.7-0.6l-0.2-1.1c0.2,0,3.2-0.6,4.1,1.4C81.1,19.2,79.7,19.4,79.6,19.4
			z M76.3,15.1l0.4,2c-1.4,0.1-1.7-0.4-1.8-0.7c0.3-0.5,0.5-0.9,0.7-1.4C75.9,15,76.1,15.1,76.3,15.1z M77.1,15.1c0.9,0,1.7,0,2.5,0
			l0.9,1.7C80.2,16.9,77.6,17.2,77.1,15.1L77.1,15.1z M80.4,15c1.2-0.2,2.2-0.4,3.1-0.8l1.9,1.7C85.3,16,81.7,17.2,80.4,15z
			 M84.9,14.3c-0.2-0.2-0.4-0.4-0.6-0.5c1-0.5,1.9-1,2.8-1.7l3,1.8C89.7,14.2,86.7,16,84.9,14.3z M89.7,12.8l-1.9-1.1
			c0.8-0.6,1.6-1.2,2.5-1.8l4.1,1.7C94,12,91.7,13.7,89.7,12.8z M93.5,10.4c-0.6-0.3-1.1-0.4-1.5-0.5l-1-0.4c0.1,0,0.1-0.1,0.2-0.1
			c1-0.7,2.2-1.3,3.4-1.7l3.8,1.1C97.8,9.2,95.6,11.3,93.5,10.4z M83.2,7.1l4.5,1.8c-1.3,1-2.7,2.1-4.3,2.9C83,12,82.3,12,81.8,11.6
			c0,0,0,0,0,0l-1.4-1.3C81.5,9.6,82.5,8.5,83.2,7.1z M77.6,11c0.7,0,1.4-0.1,2-0.4l2.1,1.9c-1.2,0.4-2.6,0.6-4.3,0.6
			c-0.7-0.1-0.7-0.6-0.5-1l0,0c0.1-0.4,0.3-0.7,0.4-1.1C77.4,11,77.5,11,77.6,11z M55.6,11c0.1,0,0.2,0,0.3,0
			c0.1,0.4,0.2,0.7,0.4,1.1l0,0c0.1,0.4,0.1,0.9-0.5,1c-1.6,0-3-0.2-4.3-0.6l2.1-1.9C54.2,10.8,54.9,11,55.6,11z M55.3,18.8
			c-0.1,0.5-0.6,0.8-1.7,0.6c-0.1,0-1.5-0.2-2.1-0.3c0.9-2,3.9-1.4,4.1-1.4L55.3,18.8z M38.8,11.6l4.1-1.7c0.9,0.6,1.7,1.2,2.5,1.8
			l-1.9,1.1C41.5,13.7,39.3,12,38.8,11.6z M39.8,10.4c-2.2,0.9-4.4-1.1-4.9-1.7l3.8-1.1C39.8,8,41,8.6,42,9.3c0.1,0,0.1,0.1,0.2,0.1
			l-1,0.4C40.8,10,40.4,10.1,39.8,10.4z M46.1,12.2c0.9,0.6,1.8,1.2,2.8,1.7c-0.2,0.1-0.4,0.3-0.6,0.5c-1.9,1.7-4.9-0.1-5.2-0.4
			L46.1,12.2z M49.7,14.2c0.9,0.4,2,0.7,3.1,0.8c-1.3,2.2-4.9,0.9-5,0.9L49.7,14.2z M52.7,16.8l0.9-1.7c0.8,0.1,1.6,0.1,2.5,0l0,0.1
			C55.6,17.2,53.1,16.9,52.7,16.8z M56.9,15.1c0.2,0,0.4,0,0.7-0.1c0.2,0.5,0.5,0.9,0.7,1.4c-0.1,0.3-0.4,0.7-1.8,0.7L56.9,15.1z
			 M52.9,10.3l-1.4,1.3c0,0,0,0,0,0c-0.5,0.4-1.1,0.4-1.6,0.2c-1.6-0.8-3-1.8-4.3-2.9L50,7.1C50.7,8.5,51.7,9.6,52.9,10.3z
			 M47.2,2.6c0.1,0,0.1,0,0.2,0c0.6,0,1.1,0.4,1.3,1c0.3,1,0.6,2,1,2.8l-3.2,1.3c-1.6,0.6-2.4,0.1-3.3-0.5h0
			c-3.8-2.5-9-2.1-12.1-1.5C37.2,4.4,43,3.3,47.2,2.6z M4.1,11.8c5.3-1.3,17.4-4,17.4-4c5.1-1.1,10.9-1.8,15.7-0.6l-26.2,7.6
			C8.4,13.9,6,12.7,4.1,11.8z M24.2,16.7c-0.9,0.2-1.8,0.3-2.8,0.3c-2.9,0-6.1-0.7-9.1-1.7L30,10.1c3.5-0.6,6.1,1.3,6.5,1.6
			L24.2,16.7z M33.8,13.7c3.7-1.3,6.7,0.6,7.1,0.8L36.5,17c-1.1,0.6-3.8,1.7-5.9,1.3c-0.1,0-0.2,0-0.3-0.1c-2.3-0.5-3.9-1-4.6-1.2
			L33.8,13.7z M38.3,16.8c3.5-1.9,7.2-0.5,7.7-0.3l-1.5,1.3c-0.8,0.7-1.9,1.2-3.6,1.3c-2.3,0-4.3-0.1-6.2-0.3L38.3,16.8z M46.4,19
			c-0.7,0.1-1.4,0.1-2.1,0.1l0.8-0.7c2.2-2,6.4-1.1,6.5-1L51,18.3c-0.2,0.4-0.6,0.6-1.6,0.6c-0.1,0-0.7,0-1.1,0
			C47.7,18.9,47,18.9,46.4,19z M55.9,19.6c0.3-1.2,0.9-1.7,2.5-1.6l0,1.3c0,0.6-0.2,1.5-1.1,1.2c0,0,0,0,0,0c-0.5-0.2-1-0.3-1.5-0.5
			L55.9,19.6z M59.3,20.6c0-0.7,0.1-1.5,0.6-1.6c0.5,0.7,0.9,1.3,1.4,1.9c0.5,0.6,0,1-0.4,0.8l0,0c-0.5-0.2-1-0.5-1.6-0.7L59.3,20.6
			z M66.6,24.2c-6.1-5-9.9-12.2-10.6-20c3.4-1.8,6.9-2.7,10.6-2.7c3.6,0,7.2,0.9,10.6,2.7C76.5,12,72.7,19.2,66.6,24.2z M72.3,21.7
			c-0.5,0.2-0.9-0.2-0.4-0.8c0.5-0.6,1-1.2,1.4-1.9c0.5,0.1,0.6,0.9,0.6,1.6l0,0.5C73.4,21.3,72.8,21.5,72.3,21.7z M75.8,20.4
			L75.8,20.4c-0.9,0.3-1.1-0.6-1.1-1.2l0-1.3c1.6-0.1,2.2,0.4,2.5,1.6l0.1,0.4C76.8,20.1,76.3,20.2,75.8,20.4z M86.8,19
			c-0.7-0.1-1.3-0.1-2-0.1c-0.3,0-1,0-1.1,0c-1,0-1.4-0.3-1.6-0.6l-0.5-0.9c0.1,0,4.3-1,6.5,1l0.8,0.7C88.2,19.1,87.5,19,86.8,19z
			 M92.3,19.2c-1.7-0.1-2.8-0.7-3.6-1.3l-1.5-1.3c0.5-0.2,4.2-1.6,7.7,0.3l3.5,2.1C96.6,19.1,94.6,19.2,92.3,19.2z M102.9,18.2
			c-0.1,0-0.2,0-0.3,0.1c-2.1,0.4-4.8-0.6-5.9-1.3l-4.3-2.5c0.4-0.2,3.4-2.1,7.1-0.8l8.1,3.3C106.8,17.2,105.2,17.8,102.9,18.2z
			 M111.9,16.9c-1,0-2-0.1-2.8-0.3l-12.3-4.9c0.4-0.4,3-2.3,6.5-1.6l17.7,5.1C117.9,16.2,114.8,16.9,111.9,16.9z M95.9,7.2
			c4.8-1.2,10.6-0.6,15.7,0.6c0,0,12.1,2.8,17.4,4c-1.8,0.9-4.3,2-6.9,3L95.9,7.2z"/>
	</g>
	<g>
		<path class="st0" d="M17.5,31.7l-14.9,34h6.6l3.4-8H28l3.4,8h6.8L23.9,33c-0.3-0.8-1.1-1.3-1.9-1.3L17.5,31.7L17.5,31.7z
			 M25.6,51.9H15.1l5.2-12.2L25.6,51.9z"/>
		<path class="st0" d="M53.4,31.4c-9.9,0-17.7,7.7-17.7,17.5v0.1c0,9.9,7.6,17.4,17.6,17.4c9.9,0,17.7-7.7,17.7-17.5v-0.1
			C71,38.8,63.5,31.4,53.4,31.4z M42.4,48.7c0-6.5,4.7-11.4,10.9-11.4c6.3,0,11,5,11,11.5v0.1c0,6.5-4.7,11.4-10.9,11.4
			c-6.3,0-11-4.9-11-11.5V48.7z"/>
		<path class="st0" d="M100.4,43.2L100.4,43.2c0-7-5.1-11.5-12.9-11.5H74.1v34h4.3c1.2,0,2.1-0.9,2.1-2.1v-8.8h6.3
			C95,54.8,100.4,50.2,100.4,43.2z M93.8,43.2L93.8,43.2c0,3.5-2.8,5.7-6.9,5.7h-6.5V37.6H87C91.3,37.6,93.8,39.6,93.8,43.2z"/>
		<path class="st0" d="M114.3,31.7h-4.4L95,65.7h6.6l3.4-8h15.3l3.4,8h6.8L116.2,33C115.9,32.2,115.1,31.7,114.3,31.7z M118,51.9
			h-10.5l5.2-12.2L118,51.9z"/>
	</g>
	<g>
		<path class="st0" d="M120.5,33.1h-0.8v-0.3h2v0.3h-0.8v2.2h-0.4L120.5,33.1L120.5,33.1z M122.2,32.7h0.4l0.9,1.4l0.9-1.4h0.4v2.5
			h-0.4v-1.9l-0.9,1.4h0l-0.9-1.4v1.9h-0.4V32.7z"/>
	</g>
</g>
</svg>
